# xmcd CD database file
#
# Track frame offsets:
#	150
#	37625
#	60525
#	104337
#	114887
#	135512
#	167437
#	202662
#	233037
#	256587
#
# Disc length: 3708 seconds
#
# Revision: 0
# Processed by: cddbd v1.5.2PL0 Copyright (c) Steve Scherf et al.
# Submitted via: CDex 1.70beta1
#
DISCID=670e7a0a
DTITLE=Varius artist - American Horns
DYEAR=1993
DGENRE=Jazz
TTITLE0=Wynton Marsalis - Caravan
TTITLE1=Wynton Marsalis - April in Paris
TTITLE2=Wynton Marsalis - Autumn Leaves
TTITLE3=Wynton Marsalis - Cherokee
TTITLE4=Brandford Marsalis - St Thomas
TTITLE5=Brandford Marsalis - Royal Garden Blues
TTITLE6=Brandford Marsalis - Just One of Those Thing
TTITLE7=Wayne Shorter - Joy Rider
TTITLE8=Wayne Shorter - Condition Red
TTITLE9=Wayne Shorter - Endangered Species
EXTD=YEAR: 1993
EXTT0=
EXTT1=
EXTT2=
EXTT3=
EXTT4=
EXTT5=
EXTT6=
EXTT7=
EXTT8=
EXTT9=
PLAYORDER=
